<svg width="16" height="16" viewBox="0 0 16 16" fill="none" xmlns="http://www.w3.org/2000/svg">
<path d="M6.68852 2.18092C7.22498 1.05078 8.77498 1.05078 9.31144 2.18092L10.2386 4.1341C10.4516 4.58288 10.8634 4.89394 11.3397 4.9659L13.4129 5.27911C14.6124 5.46034 15.0914 6.99301 14.2234 7.8727L12.7233 9.39304C12.3786 9.74237 12.2213 10.2457 12.3027 10.7389L12.6568 12.8857C12.8617 14.1278 11.6077 15.0751 10.5348 14.4886L8.68053 13.475C8.25448 13.2422 7.74548 13.2422 7.31943 13.475L5.46516 14.4886C4.39224 15.0751 3.13826 14.1278 3.34317 12.8857L3.69731 10.7389C3.77867 10.2457 3.62139 9.74237 3.2767 9.39304L1.77656 7.8727C0.908557 6.99301 1.38753 5.46034 2.58709 5.27911L4.66023 4.9659C5.13657 4.89394 5.54836 4.58288 5.76138 4.1341L6.68852 2.18092Z" fill="#BE968E"/>
</svg>
